<mxfile host="app.diagrams.net" modified="2024-06-12T11:05:51.044Z" agent="Mozilla/5.0 (Windows NT 10.0; Win64; x64) AppleWebKit/537.36 (KHTML, like Gecko) Chrome/125.0.0.0 Safari/537.36" version="24.4.10" etag="4f3T8gMZ1NwTRRp9PUgh" type="github">
  <diagram name="第 1 页" id="KH3vqqFMECH-eOPJL386">
    <mxGraphModel>
      <root>
        <mxCell id="0" />
        <mxCell id="1" parent="0" />
      </root>
    </mxGraphModel>
  </diagram>
</mxfile>
